<svg width="132" height="40" xmlns="http://www.w3.org/2000/svg">

 <g>
  <title>background</title>
  <rect fill="none" id="canvas_background" height="402" width="582" y="-1" x="-1"/>
 </g>
 <g>
  <title>Layer 1</title>
  <path id="svg_1" fill="black" d="m8.477,39.9981c-0.34193,0 -0.6747,-0.004799 -1.01256,-0.011402c-0.70099,-0.008698 -1.40033,-0.065899 -2.09228,-0.171097c-0.64541,-0.1036 -1.27068,-0.296501 -1.85517,-0.5723c-0.57908,-0.273903 -1.1072,-0.633102 -1.56413,-1.063801c-0.46328,-0.425301 -0.84897,-0.918499 -1.14179,-1.460201c-0.29612,-0.5452 -0.50101,-1.1297 -0.60754,-1.732998c-0.11542,-0.648003 -0.17802,-1.303303 -0.18725,-1.960201c-0.0061,-0.220501 -0.01628,-0.955399 -0.01628,-0.955399l0,-24.154742c0,0 0.01018,-0.72248 0.01628,-0.93542c0.00916,-0.65594 0.07124,-1.31093 0.18623,-1.95832c0.10661,-0.60477 0.31148,-1.19079 0.60754,-1.73776c0.59551,-1.08811 1.54258,-1.97349 2.70694,-2.5306c0.58268,-0.27531 1.20633,-0.46727 1.85008,-0.56944c0.69425,-0.10592 1.39601,-0.16311 2.09941,-0.17111l1.01052,-0.01331l115.039998,0l1.023003,0.01236c0.696999,0.00855 1.391998,0.06464 2.080002,0.17111c0.649994,0.10256 1.280998,0.29546 1.870003,0.57229c1.161987,0.55938 2.106995,1.44425 2.702988,2.5306c0.292007,0.54281 0.494003,1.1246 0.600006,1.72445c0.115005,0.65214 0.181,1.31188 0.194,1.97353c0.003006,0.29565 0.003006,0.61411 0.003006,0.93067c0.009995,0.39167 0.009995,0.76527 0.009995,1.14077l0,21.88562c0,0.380199 0,0.750999 -0.009995,1.124601c0,0.340298 0,0.651199 -0.004013,0.9725c-0.012985,0.649597 -0.076996,1.297398 -0.191986,1.938297c-0.104004,0.607601 -0.308014,1.196602 -0.604004,1.7463c-0.294998,0.535801 -0.679001,1.0247 -1.137009,1.448803c-0.457993,0.432499 -0.987,0.793598 -1.567001,1.0695c-0.58799,0.277798 -1.216995,0.471397 -1.86599,0.5742c-0.692001,0.105499 -1.391006,0.162498 -2.093002,0.171097c-0.327003,0.006603 -0.670998,0.010403 -1.003998,0.010403l-1.214005,0.002899l-113.831998,-0.0019z"/>
  <path id="svg_2" fill="white" d="m37.397202,27.4587l-4.627602,0l-1.111099,3.2817l-1.960899,0l4.383999,-12.1422l2.0364,0l4.383999,12.1422l-1.993698,0l-1.111099,-3.2817zm-4.148502,-1.5147l3.6684,0l-1.807999,-5.3262l-0.051502,0l-1.809799,5.3262l0.0009,0zm16.720001,0.370699c0,2.751101 -1.472,4.5182 -3.693302,4.5182c-0.562897,0.0296 -1.122799,-0.099998 -1.615498,-0.373798c-0.492702,-0.273901 -0.8983,-0.681002 -1.1703,-1.1747l-0.041801,0l0,4.383999l-1.817799,0l0,-11.780399l1.759998,0l0,1.472l0.032902,0c0.2845,-0.491001 0.6968,-0.895802 1.192898,-1.171301c0.496201,-0.2754 1.057701,-0.411301 1.624901,-0.3932c2.248001,0 3.728001,1.7752 3.728001,4.519199zm-1.866699,0c0,-1.7929 -0.927101,-2.970699 -2.3395,-2.970699c-1.3885,0 -2.322701,1.2027 -2.322701,2.970699c0,1.7831 0.9333,2.977701 2.322701,2.977701c1.4133,0 2.3395,-1.169701 2.3395,-2.977701zm11.610699,0c0,2.751101 -1.472,4.5182 -3.694199,4.5182c-0.562904,0.0296 -1.122803,-0.099998 -1.615501,-0.373798c-0.492699,-0.273901 -0.8983,-0.681002 -1.170303,-1.1747l-0.041794,0l0,4.383999l-1.816902,0l0,-11.780399l1.758301,0l0,1.472l0.033699,0c0.284599,-0.491201 0.696999,-0.896 1.193298,-1.171501c0.4963,-0.275499 1.058098,-0.411299 1.625404,-0.393c2.247093,0 3.727997,1.7752 3.727997,4.519199zm-1.867599,0c0,-1.7929 -0.926201,-2.970699 -2.3395,-2.970699c-1.388496,0 -2.322701,1.2027 -2.322701,2.970699c0,1.7831 0.934204,2.977701 2.322701,2.977701c1.4133,0 2.3395,-1.169701 2.3395,-2.977701zm8.307602,1.042601c0.134201,1.2036 1.304001,1.994699 2.902199,1.994699c1.531601,0 2.633797,-0.7911 2.633797,-1.876499c0,-0.9422 -0.664894,-1.506599 -2.238197,-1.893301l-1.573303,-0.379499c-2.230301,-0.5387 -3.2649,-1.5814 -3.2649,-3.2729c0,-2.0951 1.825706,-3.5343 4.417702,-3.5343c2.566299,0 4.324501,1.439199 4.384003,3.5343l-1.834602,0c-0.109398,-1.211599 -1.111099,-1.9431 -2.575096,-1.9431c-1.464005,0 -2.464905,0.7395 -2.464905,1.816799c0,0.858702 0.639999,1.363602 2.204399,1.750301l1.337799,0.328899c2.4916,0.5884 3.526207,1.5893 3.526207,3.365299c0,2.272001 -1.809807,3.694201 -4.687103,3.694201c-2.693298,0 -4.511101,-1.389299 -4.628403,-3.5849l1.860405,0zm11.3769,-7.5644l0,2.0951l1.683601,0l0,1.4382l-1.684502,0l0,4.879999c0,0.7591 0.336899,1.112 1.077301,1.112c0.199196,-0.0035 0.3992,-0.017799 0.597397,-0.0418l0,1.431101c-0.332703,0.061199 -0.6707,0.0891 -1.008896,0.083599c-1.7929,0 -2.4916,-0.6738 -2.4916,-2.3911l0,-5.073799l-1.287102,0l0,-1.4382l1.287102,0l0,-2.0951l1.826698,0zm2.657799,6.521799c0,-2.785799 1.6409,-4.535999 4.199097,-4.535999c2.5662,0 4.199501,1.751101 4.199501,4.535999c0,2.792801 -1.624397,4.535101 -4.199501,4.535101c-2.574196,0 -4.199097,-1.7423 -4.199097,-4.535101zm6.5466,0c0,-1.9112 -0.875504,-3.0383 -2.347504,-3.0383c-1.4729,0 -2.346695,1.136 -2.346695,3.0383c0,1.918201 0.873795,3.0373 2.346695,3.0373c1.472,0 2.347504,-1.119999 2.347504,-3.0373zm3.349998,-4.426699l1.734001,0l0,1.506699l0.041,0c0.116997,-0.470699 0.392998,-0.8867 0.780998,-1.178099c0.387001,-0.291401 0.863998,-0.440401 1.348,-0.4219c0.209999,0 0.417999,0.0222 0.622002,0.068399l0,1.6996c-0.264,-0.0809 -0.539001,-0.118101 -0.816002,-0.1103c-0.264,-0.0107 -0.527,0.0359 -0.770996,0.1366c-0.244003,0.100599 -0.464005,0.252998 -0.644005,0.446499c-0.18,0.1936 -0.315994,0.4238 -0.397995,0.674801c-0.083,0.250999 -0.110001,0.516899 -0.080002,0.779499l0,5.250601l-1.817001,0l0,-8.8524zm12.904999,6.252399c-0.243996,1.6071 -1.809998,2.7094 -3.811996,2.7094c-2.575005,0 -4.174004,-1.724501 -4.174004,-4.493401c0,-2.776899 1.607002,-4.5777 4.098,-4.5777c2.449005,0 3.988998,1.6826 3.988998,4.3671l0,0.6222l-6.251999,0l0,0.109301c-0.028999,0.3258 0.012001,0.653999 0.120003,0.962799c0.107002,0.3088 0.279999,0.5912 0.504997,0.828402c0.225006,0.237099 0.498001,0.423698 0.801003,0.547199c0.303001,0.123499 0.628998,0.1812 0.955002,0.169199c0.43,0.0403 0.861,-0.059 1.228996,-0.283199c0.368004,-0.2243 0.653999,-0.561399 0.816002,-0.9613l1.724998,0zm-6.141998,-2.642599l4.425003,0c0.015999,-0.2929 -0.028,-0.585901 -0.131004,-0.860701c-0.101997,-0.2749 -0.260002,-0.5256 -0.463997,-0.7365c-0.204002,-0.210901 -0.449005,-0.377401 -0.720001,-0.4891c-0.271004,-0.1117 -0.563004,-0.166201 -0.856003,-0.160002c-0.295998,-0.001799 -0.588997,0.054901 -0.862999,0.167002c-0.274002,0.112099 -0.523003,0.277399 -0.732002,0.486198c-0.209999,0.2089 -0.375999,0.457201 -0.489998,0.7306c-0.112999,0.273401 -0.169998,0.5665 -0.168999,0.862501zm-63.825802,-16.039151c0.380802,-0.027209 0.763,0.03042 1.1189,0.16874c0.356003,0.13832 0.6768,0.35388 0.939301,0.63111c0.2626,0.2773 0.4604,0.6094 0.579102,0.9723c0.118698,0.362901 0.155399,0.747701 0.107498,1.1265c0,1.864 -1.007099,2.936 -2.744801,2.936l-2.107597,0l0,-5.83465l2.107597,0zm-1.201797,5.00885l1.100399,0c0.272202,0.0163 0.544498,-0.028299 0.797199,-0.1306c0.2528,-0.1023 0.4795,-0.2596 0.663799,-0.4605c0.1842,-0.201 0.321301,-0.4405 0.401402,-0.7011c0.080002,-0.2606 0.100899,-0.5358 0.061199,-0.8055c0.036701,-0.2687 0.0135,-0.5421 -0.067799,-0.800799c-0.081299,-0.2586 -0.2188,-0.4961 -0.402599,-0.6955c-0.1838,-0.1993 -0.409302,-0.355599 -0.660603,-0.4576c-0.251198,-0.102 -0.5219,-0.147201 -0.792599,-0.132401l-1.100399,0l0,4.184zm4.9706,-1.3777c-0.028099,-0.289599 0.0047,-0.5819 0.096199,-0.8582c0.091599,-0.276199 0.239899,-0.5301 0.435402,-0.7456c0.195599,-0.2155 0.433998,-0.3877 0.7001,-0.5055c0.265999,-0.1178 0.553799,-0.1787 0.844799,-0.1787c0.291,0 0.578701,0.060901 0.844799,0.1787c0.265999,0.1178 0.504501,0.29 0.700001,0.5055c0.195599,0.2155 0.343899,0.4694 0.435501,0.7456c0.091499,0.2763 0.124298,0.568601 0.0961,0.8582c0.028198,0.2896 -0.004601,0.5819 -0.0961,0.8581c-0.091602,0.2762 -0.239902,0.5302 -0.435501,0.7457c-0.195499,0.215401 -0.434002,0.3876 -0.700001,0.505401c-0.266098,0.1179 -0.553799,0.178699 -0.844799,0.178699c-0.291,0 -0.5788,-0.0608 -0.844799,-0.178699c-0.266102,-0.117801 -0.504501,-0.29 -0.7001,-0.505401c-0.195503,-0.2155 -0.343803,-0.4695 -0.435402,-0.7457c-0.091499,-0.2762 -0.124298,-0.5685 -0.096199,-0.8581zm3.258698,0c0,-0.9547 -0.428398,-1.5129 -1.181297,-1.5129c-0.7556,0 -1.1796,0.558201 -1.1796,1.5129c0,0.9617 0.4249,1.5155 1.1796,1.5155c0.752899,0 1.181297,-0.5573 1.181297,-1.5155zm6.4142,2.2035l-0.901299,0l-0.910198,-3.2435l-0.069401,0l-0.905701,3.2435l-0.892502,0l-1.214199,-4.4035l0.881802,0l0.788399,3.36l0.064899,0l0.9058,-3.36l0.832901,0l0.905701,3.36l0.068501,0l0.784901,-3.36l0.869297,0l-1.2089,4.4035zm2.229401,-4.4035l0.835503,0l0,0.6995l0.0658,0c0.109898,-0.2513 0.295597,-0.462 0.5312,-0.6026c0.2356,-0.1406 0.509197,-0.204 0.782597,-0.1814c0.214203,-0.0162 0.429401,0.0161 0.629501,0.0943c0.200001,0.0783 0.380001,0.2006 0.526402,0.3579c0.1464,0.1572 0.255501,0.3454 0.319298,0.5505c0.063805,0.2052 0.080605,0.4221 0.049202,0.634701l0,2.8497l-0.869301,0l0,-2.631101c0,-0.7084 -0.307598,-1.0595 -0.950199,-1.0595c-0.1455,-0.0069 -0.290699,0.0178 -0.425701,0.0724c-0.135101,0.0545 -0.256699,0.1376 -0.356598,0.2436c-0.099903,0.106 -0.175602,0.2323 -0.222103,0.3703c-0.046497,0.138 -0.062599,0.2844 -0.047199,0.4292l0,2.575999l-0.868401,0l0,-4.4035zm5.123505,-1.71826l0.8694,0l0,6.121759l-0.8694,0l0,-6.12265l0,0.000891zm2.077293,3.91826c-0.028099,-0.289599 0.0047,-0.5819 0.096207,-0.8582c0.091599,-0.276199 0.239899,-0.5301 0.435394,-0.7456c0.195602,-0.2155 0.434006,-0.3877 0.700104,-0.5055c0.266098,-0.1178 0.553795,-0.1787 0.844795,-0.1787c0.291,0 0.578705,0.060901 0.844803,0.1787c0.265999,0.1178 0.504501,0.29 0.700104,0.5055c0.195496,0.2155 0.343796,0.4694 0.435394,0.7456c0.091499,0.2763 0.124306,0.568601 0.0961,0.8582c0.028206,0.2896 -0.004601,0.5819 -0.0961,0.8581c-0.091599,0.2762 -0.239899,0.5302 -0.435394,0.7457c-0.195602,0.215401 -0.434105,0.3876 -0.700104,0.505401c-0.266098,0.1179 -0.553802,0.178699 -0.844803,0.178699c-0.291,0 -0.578697,-0.0608 -0.844795,-0.178699c-0.266098,-0.117801 -0.504501,-0.29 -0.700104,-0.505401c-0.195496,-0.2155 -0.343796,-0.4695 -0.435394,-0.7457c-0.091507,-0.2762 -0.124306,-0.5685 -0.096207,-0.8581zm3.258705,0c0,-0.9547 -0.428406,-1.5129 -1.181305,-1.5129c-0.7556,0 -1.180496,0.558201 -1.180496,1.5129c0,0.9617 0.424896,1.5155 1.180496,1.5155c0.752899,0 1.181305,-0.5573 1.181305,-1.5155zm1.808899,0.9582c0,-0.7929 0.590202,-1.249801 1.637299,-1.3147l1.192902,-0.0684l0,-0.3805c0,-0.4649 -0.307503,-0.7271 -0.901299,-0.7271c-0.485306,0 -0.821304,0.1778 -0.917305,0.4889l-0.841797,0c0.088898,-0.7555 0.799995,-1.2409 1.799103,-1.2409c1.103996,0 1.726196,0.5494 1.726196,1.4791l0,3.0089l-0.835503,0l0,-0.619499l-0.069397,0c-0.284401,0.452399 -0.789299,0.716399 -1.322601,0.6915c-0.184799,0.0193 -0.371597,-0.000401 -0.548401,-0.0578c-0.176697,-0.0573 -0.339401,-0.1511 -0.477699,-0.2752c-0.138298,-0.1241 -0.249001,-0.2759 -0.324997,-0.4454c-0.076103,-0.169499 -0.115799,-0.3531 -0.116501,-0.538899zm2.8302,-0.376l0,-0.3689l-1.0755,0.069301c-0.6063,0.04 -0.880898,0.2463 -0.880898,0.6347c0,0.396399 0.343994,0.626699 0.815994,0.626699c0.138405,0.014001 0.278305,0 0.411301,-0.0411c0.132904,-0.0411 0.256302,-0.1085 0.362701,-0.1982c0.1064,-0.0897 0.193604,-0.1999 0.256599,-0.323999c0.062904,-0.124201 0.100304,-0.259701 0.109802,-0.3985zm2.007095,-0.5822c0,-1.3911 0.715607,-2.2729 1.827606,-2.2729c0.275299,-0.0127 0.548401,0.0533 0.787598,0.1903c0.239098,0.137 0.434196,0.3392 0.562599,0.583l0.064903,0l0,-2.419551l0.869301,0l0,6.121751l-0.832901,0l0,-0.696l-0.068405,0c-0.138596,0.242 -0.340698,0.4415 -0.584496,0.576799c-0.243805,0.135401 -0.519905,0.2015 -0.798599,0.1912c-1.120003,0 -1.827606,-0.8809 -1.827606,-2.2755l0,0.0009zm0.897804,0c0,0.9333 0.440002,1.496 1.176003,1.496c0.732498,0 1.184898,-0.570701 1.184898,-1.4925c0,-0.9173 -0.456902,-1.496 -1.184898,-1.496c-0.731506,0 -1.176003,0.5662 -1.176003,1.4925zm6.808899,0c-0.028099,-0.289599 0.004601,-0.5819 0.096199,-0.8582c0.091499,-0.276199 0.239799,-0.5301 0.435402,-0.7456c0.195496,-0.2155 0.433998,-0.3877 0.700096,-0.5055c0.266006,-0.1178 0.553802,-0.1787 0.844803,-0.1787c0.290901,0 0.578697,0.060901 0.844704,0.1787c0.266098,0.1178 0.504593,0.29 0.700096,0.5055c0.195602,0.2155 0.343903,0.4694 0.435402,0.7456c0.091599,0.2763 0.124298,0.568601 0.096199,0.8582c0.028099,0.2896 -0.004601,0.5819 -0.096199,0.8581c-0.091499,0.2762 -0.239799,0.5302 -0.435402,0.7457c-0.195503,0.215401 -0.433998,0.3876 -0.700096,0.505401c-0.266006,0.1179 -0.553802,0.178699 -0.844704,0.178699c-0.291,0 -0.578796,-0.0608 -0.844803,-0.178699c-0.266098,-0.117801 -0.504601,-0.29 -0.700096,-0.505401c-0.195602,-0.2155 -0.343903,-0.4695 -0.435402,-0.7457c-0.091599,-0.2762 -0.124298,-0.5685 -0.096199,-0.8581zm3.258698,0c0,-0.9547 -0.428497,-1.5129 -1.181396,-1.5129c-0.755501,0 -1.179504,0.558201 -1.179504,1.5129c0,0.9617 0.424904,1.5155 1.180405,1.5155c0.751999,0 1.180496,-0.5573 1.180496,-1.5155zm2.059502,-2.2l0.836502,0l0,0.6995l0.064896,0c0.2257,-0.5155 0.7537,-0.8302 1.314606,-0.784c0.214195,-0.016 0.429199,0.0163 0.629196,0.0947c0.200005,0.0783 0.379799,0.200601 0.5261,0.3578c0.146301,0.1573 0.255402,0.3454 0.319099,0.5505c0.063805,0.2051 0.080605,0.4219 0.049202,0.6344l0,2.8497l-0.869301,0l0,-2.631101c0,-0.7084 -0.306702,-1.0595 -0.949402,-1.0595c-0.145401,-0.0069 -0.290695,0.0178 -0.425697,0.0724c-0.135002,0.0545 -0.256599,0.1376 -0.356499,0.2436c-0.099899,0.106 -0.175705,0.2323 -0.222198,0.3703c-0.046501,0.138 -0.062599,0.2844 -0.047104,0.4292l0,2.575999l-0.8694,0l0,-4.4035zm8.648903,-1.09603l0,1.11643l0.954201,0l0,0.7316l-0.9533,0l0,2.264c0,0.4622 0.189301,0.6631 0.622299,0.6631c0.111,0 0.222,-0.0071 0.331001,-0.0196l0,0.723599c-0.156006,0.027901 -0.314003,0.0428 -0.472404,0.0444c-0.966202,0 -1.351097,-0.3404 -1.351097,-1.1884l0,-2.4871l-0.6987,0l0,-0.7316l0.6987,0l0,-1.11732l0.870201,0l-0.0009,0.00089zm2.142197,-0.62223l0.860001,0l0,2.42666l0.069,0c0.237,-0.52 0.773003,-0.8355 1.342003,-0.7893c0.212997,-0.0117 0.426994,0.0238 0.624001,0.1039c0.197998,0.0802 0.375999,0.2031 0.520996,0.360001c0.145004,0.156799 0.253998,0.343699 0.318001,0.547299c0.064003,0.2036 0.083,0.4189 0.054001,0.6306l0,2.8426l-0.870003,0l0,-2.6293c0,-0.703099 -0.326996,-1.0596 -0.942001,-1.0596c-0.148994,-0.012099 -0.298996,0.0086 -0.439995,0.0605c-0.139999,0.052 -0.267998,0.134 -0.373001,0.2403c-0.106003,0.1063 -0.187004,0.2344 -0.237999,0.3753c-0.050003,0.1409 -0.07,0.2912 -0.056999,0.440399l0,2.571501l-0.869003,0l0,-6.121751l0.000999,0.000891zm8.854004,4.93336c-0.118004,0.4022 -0.374001,0.750199 -0.722,0.9828c-0.348999,0.2327 -0.769005,0.335401 -1.185005,0.2901c-0.289993,0.0076 -0.578995,-0.048 -0.844994,-0.1629c-0.267006,-0.115 -0.505005,-0.2865 -0.698006,-0.5028c-0.194,-0.2163 -0.337997,-0.472 -0.422997,-0.7496c-0.084,-0.277499 -0.108002,-0.5702 -0.068001,-0.857599c-0.039001,-0.288301 -0.014999,-0.5815 0.07,-0.8597c0.084999,-0.2783 0.227997,-0.5351 0.420998,-0.7531c0.192001,-0.217999 0.429001,-0.3922 0.695,-0.5107c0.264999,-0.1184 0.553001,-0.178499 0.844002,-0.1761c1.224998,0 1.965004,0.8365 1.965004,2.219601l0,0.302199l-3.110001,0l0,0.0498c-0.013,0.1615 0.006996,0.3241 0.059998,0.477301c0.053001,0.153199 0.137001,0.293699 0.248001,0.412399c0.110001,0.1187 0.243996,0.2131 0.392998,0.277101c0.149002,0.064 0.309998,0.0962 0.472,0.0945c0.425003,0.0507 0.839005,-0.16 1.047005,-0.533299l0.835999,0zm-3.056,-1.4196l2.223999,0c0.011002,-0.147799 -0.009003,-0.2963 -0.058998,-0.4359c-0.050003,-0.1395 -0.128006,-0.2672 -0.230003,-0.3746c-0.101997,-0.1074 -0.225998,-0.1922 -0.362999,-0.2491c-0.137001,-0.0568 -0.284004,-0.0843 -0.431999,-0.0808c-0.150002,-0.0018 -0.299004,0.0265 -0.439003,0.0832c-0.139,0.0566 -0.264999,0.140599 -0.371002,0.2469c-0.105995,0.1062 -0.189995,0.2327 -0.246994,0.3719c-0.056,0.1391 -0.084999,0.2882 -0.083,0.4384zm-75.158001,8.085401c0.010597,-0.816101 0.227398,-1.616201 0.630199,-2.326c0.402798,-0.709801 0.9786,-1.306101 1.673798,-1.733601c-0.4417,-0.630699 -1.0243,-1.149799 -1.701698,-1.5159c-0.677399,-0.366199 -1.430799,-0.5694 -2.2005,-0.5934c-1.6418,-0.1725 -3.233799,0.9822 -4.0711,0.9822c-0.8524,0 -2.1404,-0.9653 -3.528,-0.936899c-0.897299,0.029099 -1.7717,0.290099 -2.538099,0.7575c-0.7665,0.4675 -1.398701,1.125599 -1.835201,1.910099c-1.890699,3.273701 -0.48,8.0853 1.330601,10.732401c0.9067,1.296 1.965401,2.743099 3.351101,2.691601c1.356499,-0.056002 1.863199,-0.864901 3.5005,-0.864901c1.6222,0 2.097799,0.864901 3.511099,0.832899c1.455101,-0.024 2.372499,-1.302299 3.247099,-2.609798c0.6511,-0.9235 1.152103,-1.944101 1.484501,-3.024c-0.8456,-0.3577 -1.5672,-0.9564 -2.074799,-1.7215c-0.507599,-0.765001 -0.778702,-1.6626 -0.779499,-2.5807zm-2.671103,-7.9094c0.7936,-0.9526 1.184502,-2.1771 1.089802,-3.41331c-1.2122,0.12748 -2.331902,0.707009 -3.136002,1.62311c-0.393099,0.4474 -0.694199,0.967999 -0.886099,1.531799c-0.1919,0.5639 -0.2707,1.1601 -0.2321,1.7544c0.606199,0.0062 1.205999,-0.1252 1.754099,-0.3843c0.548201,-0.2591 1.030399,-0.639199 1.410299,-1.111699z"/>
  <ellipse ry="13" rx="10.5" id="svg_3" cy="20.450012" cx="16" stroke-width="1.5" stroke="#000" fill="#000000"/>
 </g>
</svg>