<svg width="56" height="56" viewBox="0 0 56 56" fill="none" xmlns="http://www.w3.org/2000/svg">
<path d="M29.4004 13.554L15.4004 30.354H28.0004L26.6004 41.554L40.6004 24.754H28.0004L29.4004 13.554Z" stroke="#43454F" stroke-width="2" stroke-linecap="round" stroke-linejoin="round"/>
<path opacity="0.4" d="M19.6005 2.80005C16.0666 3.99887 12.8722 5.9332 10.1996 8.42076C5.07347 13.1921 1.86719 19.9986 1.86719 27.5541C1.86719 35.1095 5.07347 41.9161 10.1996 46.6874C12.5145 48.8421 15.221 50.5817 18.2005 51.7878M36.4005 2.80005C39.9345 3.99887 43.1289 5.9332 45.8014 8.42076C50.9276 13.1921 54.1339 19.9986 54.1339 27.5541C54.1339 35.1095 50.9276 41.9161 45.8014 46.6874C43.1289 49.175 39.9345 51.1093 36.4005 52.3081" stroke="#43454F" stroke-width="2" stroke-linecap="round" stroke-linejoin="round"/>
</svg>
