<svg width="109" height="18" xmlns="http://www.w3.org/2000/svg">
 <defs>
  <linearGradient y2="100%" y1="2.796%" x2="0%" x1="97.204%" id="a">
   <stop stop-color="#11C4D1" offset="0%"/>
   <stop stop-color="#0062AD" offset="100%"/>
  </linearGradient>
 </defs>
 <g>
  <title>background</title>
  <rect fill="none" id="canvas_background" height="402" width="582" y="-1" x="-1"/>
 </g>
 <g>
  <title>Layer 1</title>
  <g id="svg_1" fill-rule="nonzero" fill="none">
   <path id="svg_2" d="m23.915,1.124c0.791,10.714 -6.096,15.778 -12.27,16.318c-5.74,0.502 -11.143,-3.025 -11.617,-8.444c-0.391,-4.477 2.376,-6.383 4.55,-6.573c2.236,-0.196 4.115,1.346 4.278,3.213c0.157,1.795 -0.963,2.612 -1.742,2.68c-0.616,0.054 -1.391,-0.32 -1.461,-1.123c-0.06,-0.69 0.202,-0.784 0.138,-1.517c-0.114,-1.305 -1.252,-1.457 -1.875,-1.403c-0.754,0.066 -2.122,0.946 -1.93,3.138c0.193,2.211 2.313,3.958 5.092,3.715c2.999,-0.262 5.087,-2.597 5.244,-5.872a1.19,1.19 0 0 1 0.107,-0.503l0.001,-0.004a1.411,1.411 0 0 1 0.113,-0.197c0.064,-0.096 0.146,-0.202 0.252,-0.318c0.001,-0.003 0.001,-0.003 0.003,-0.003c0.077,-0.087 0.17,-0.181 0.275,-0.282c1.31,-1.236 6.028,-4.151 10.49,-3.228a0.447,0.447 0 0 1 0.352,0.403" fill="url(#a)"/>
   <text xml:space="preserve" text-anchor="start" font-family="Euphoria, sans-serif" font-size="18" id="svg_8" y="15.666659" x="30.583349" stroke-width="0" stroke="#000" fill="#000000">imtoken</text>
  </g>
 </g>
</svg>